<?xml version="1.0" encoding="UTF-8" standalone="no"?>
<svg
   xmlns:dc="http://purl.org/dc/elements/1.1/"
   xmlns:cc="http://creativecommons.org/ns#"
   xmlns:rdf="http://www.w3.org/1999/02/22-rdf-syntax-ns#"
   xmlns:svg="http://www.w3.org/2000/svg"
   xmlns="http://www.w3.org/2000/svg"
   xmlns:xlink="http://www.w3.org/1999/xlink"
   width="600"
   height="480"
   viewBox="0 0 600 480"
   version="1.1"
   id="svg433">
  <metadata
     id="metadata439">
    <rdf:RDF>
      <cc:Work
         rdf:about="">
        <dc:format>image/svg+xml</dc:format>
        <dc:type
           rdf:resource="http://purl.org/dc/dcmitype/StillImage" />
        <dc:title>Gnuplot</dc:title>
      </cc:Work>
    </rdf:RDF>
  </metadata>
  <defs
     id="defs437">
    <defs
       id="defs34">
      <circle
         id="gpDot"
         r="0.5"
         stroke-width="0.5"
         stroke="currentColor" />
      <path
         id="gpPt0"
         stroke-width="0.222"
         stroke="currentColor"
         d="M-1,0 h2 M0,-1 v2" />
      <path
         id="gpPt1"
         stroke-width="0.222"
         stroke="currentColor"
         d="M-1,-1 L1,1 M1,-1 L-1,1" />
      <path
         id="gpPt2"
         stroke-width="0.222"
         stroke="currentColor"
         d="M-1,0 L1,0 M0,-1 L0,1 M-1,-1 L1,1 M-1,1 L1,-1" />
      <rect
         id="gpPt3"
         stroke-width="0.222"
         stroke="currentColor"
         x="-1"
         y="-1"
         width="2"
         height="2" />
      <rect
         id="gpPt4"
         stroke-width="0.222"
         stroke="currentColor"
         fill="currentColor"
         x="-1"
         y="-1"
         width="2"
         height="2" />
      <circle
         id="gpPt5"
         stroke-width="0.222"
         stroke="currentColor"
         cx="0"
         cy="0"
         r="1" />
      <use
         xlink:href="#gpPt5"
         id="gpPt6"
         fill="currentColor"
         stroke="none" />
      <path
         id="gpPt7"
         stroke-width="0.222"
         stroke="currentColor"
         d="M0,-1.33 L-1.33,0.67 L1.33,0.67 z" />
      <use
         xlink:href="#gpPt7"
         id="gpPt8"
         fill="currentColor"
         stroke="none" />
      <use
         xlink:href="#gpPt7"
         id="gpPt9"
         stroke="currentColor"
         transform="rotate(180)" />
      <use
         xlink:href="#gpPt9"
         id="gpPt10"
         fill="currentColor"
         stroke="none" />
      <use
         xlink:href="#gpPt3"
         id="gpPt11"
         stroke="currentColor"
         transform="rotate(45)" />
      <use
         xlink:href="#gpPt11"
         id="gpPt12"
         fill="currentColor"
         stroke="none" />
      <path
         id="gpPt13"
         stroke-width="0.222"
         stroke="currentColor"
         d="M0,1.330 L1.265,0.411 L0.782,-1.067 L-0.782,-1.076 L-1.265,0.411 z" />
      <use
         xlink:href="#gpPt13"
         id="gpPt14"
         fill="currentColor"
         stroke="none" />
      <filter
         id="textbox"
         filterUnits="objectBoundingBox"
         x="0"
         y="0"
         height="1"
         width="1">
        <feFlood
           flood-color="white"
           flood-opacity="1"
           result="bgnd"
           id="feFlood24" />
        <feComposite
           in="SourceGraphic"
           in2="bgnd"
           operator="atop"
           id="feComposite26" />
      </filter>
      <filter
         id="greybox"
         filterUnits="objectBoundingBox"
         x="0"
         y="0"
         height="1"
         width="1">
        <feFlood
           flood-color="lightgrey"
           flood-opacity="1"
           result="grey"
           id="feFlood29" />
        <feComposite
           in="SourceGraphic"
           in2="grey"
           operator="atop"
           id="feComposite31" />
      </filter>
    </defs>
  </defs>
  <title
     id="title2">Gnuplot</title>
  <desc
     id="desc4">Produced by GNUPLOT 5.4 patchlevel 1 </desc>
  <rect
     style="fill:#ffffff;stroke:none;stroke-dasharray:none;stroke-opacity:0.69999999;fill-opacity:1;stroke-width:1;stroke-miterlimit:4"
     id="rect945"
     width="600"
     height="480"
     x="0"
     y="0" />
  <rect
     x="0"
     y="0"
     width="600"
     height="480"
     fill="none"
     id="rect6" />
  <path
     stroke="#000000"
     d="m 80.92,400.22 h 4.5 m 489.4,0 h -4.5 M 80.92,387.25 h 4.5 m 489.4,0 h -4.5 m -489.4,-9.21 h 4.5 m 489.4,0 h -4.5 M 80.92,370.9 h 4.5 m 489.4,0 h -4.5 m -489.4,-5.83 h 4.5 m 489.4,0 h -4.5 m -489.4,-4.94 h 4.5 m 489.4,0 h -4.5 m -489.4,-4.27 h 4.5 m 489.4,0 h -4.5 m -489.4,-3.77 h 4.5 m 489.4,0 h -4.5"
     id="path58"
     style="color:#000000;fill:none;stroke-width:1;stroke-linecap:butt;stroke-linejoin:miter" />
  <path
     stroke="#000000"
     d="m 80.92,422.4 h 9 m 484.9,0 h -9"
     id="path48"
     style="color:#000000;fill:none;stroke-width:1;stroke-linecap:butt;stroke-linejoin:miter" />
  <text
     id="text52"
     style="color:#000000;font-size:12px;font-family:Arial;text-anchor:end;fill:#000000;stroke:none;stroke-width:1;stroke-linecap:butt;stroke-linejoin:miter"
     x="72.529999"
     y="426.29999"><tspan
       font-family="Arial"
       id="tspan50">0.01</tspan></text>
  <path
     stroke="#c0c0c0"
     class="gridline"
     d="m 80.92,422.4 h 493.9"
     id="path42"
     style="color:#000000;fill:none;stroke-width:0.5;stroke-linecap:butt;stroke-linejoin:miter" />
  <path
     stroke="#c0c0c0"
     class="gridline"
     d="m 80.92,348.72 h 493.9"
     id="path64"
     style="color:#000000;fill:none;stroke-width:0.5;stroke-linecap:butt;stroke-linejoin:miter" />
  <path
     stroke="#000000"
     d="m 80.92,326.54 h 4.5 m 489.4,0 h -4.5 M 80.92,313.57 h 4.5 m 489.4,0 h -4.5 m -489.4,-9.21 h 4.5 m 489.4,0 h -4.5 m -489.4,-7.14 h 4.5 m 489.4,0 h -4.5 m -489.4,-5.83 h 4.5 m 489.4,0 h -4.5 m -489.4,-4.93 h 4.5 m 489.4,0 h -4.5 m -489.4,-4.28 h 4.5 m 489.4,0 h -4.5 m -489.4,-3.76 h 4.5 m 489.4,0 h -4.5"
     id="path80"
     style="color:#000000;fill:none;stroke-width:1;stroke-linecap:butt;stroke-linejoin:miter" />
  <path
     stroke="#000000"
     d="m 80.92,348.72 h 9 m 484.9,0 h -9"
     id="path70"
     style="color:#000000;fill:none;stroke-width:1;stroke-linecap:butt;stroke-linejoin:miter" />
  <text
     id="text74"
     style="color:#000000;font-size:12px;font-family:Arial;text-anchor:end;fill:#000000;stroke:none;stroke-width:1;stroke-linecap:butt;stroke-linejoin:miter"
     x="72.529999"
     y="352.62"><tspan
       font-family="Arial"
       id="tspan72">0.1</tspan></text>
  <path
     stroke="#c0c0c0"
     class="gridline"
     d="m 80.92,275.04 h 493.9"
     id="path86"
     style="color:#000000;fill:none;stroke-width:0.5;stroke-linecap:butt;stroke-linejoin:miter" />
  <path
     stroke="#000000"
     d="m 80.92,252.86 h 4.5 m 489.4,0 h -4.5 M 80.92,239.89 h 4.5 m 489.4,0 h -4.5 m -489.4,-9.2 h 4.5 m 489.4,0 h -4.5 m -489.4,-7.14 h 4.5 m 489.4,0 h -4.5 m -489.4,-5.84 h 4.5 m 489.4,0 h -4.5 m -489.4,-4.93 h 4.5 m 489.4,0 h -4.5 m -489.4,-4.27 h 4.5 m 489.4,0 h -4.5 m -489.4,-3.77 h 4.5 m 489.4,0 h -4.5"
     id="path102"
     style="color:#000000;fill:none;stroke-width:1;stroke-linecap:butt;stroke-linejoin:miter" />
  <path
     stroke="#000000"
     d="m 80.92,275.04 h 9 m 484.9,0 h -9"
     id="path92"
     style="color:#000000;fill:none;stroke-width:1;stroke-linecap:butt;stroke-linejoin:miter" />
  <text
     id="text96"
     style="color:#000000;font-size:12px;font-family:Arial;text-anchor:end;fill:#000000;stroke:none;stroke-width:1;stroke-linecap:butt;stroke-linejoin:miter"
     x="72.529999"
     y="278.94"><tspan
       font-family="Arial"
       id="tspan94">1</tspan></text>
  <path
     stroke="#c0c0c0"
     class="gridline"
     d="m 80.92,201.37 h 493.9"
     id="path108"
     style="color:#000000;fill:none;stroke-width:0.5;stroke-linecap:butt;stroke-linejoin:miter" />
  <path
     stroke="#000000"
     d="m 80.92,179.19 h 4.5 m 489.4,0 h -4.5 M 80.92,166.21 h 4.5 m 489.4,0 h -4.5 m -489.4,-9.2 h 4.5 m 489.4,0 h -4.5 m -489.4,-7.14 h 4.5 m 489.4,0 h -4.5 m -489.4,-5.84 h 4.5 m 489.4,0 h -4.5 M 80.92,139.1 h 4.5 m 489.4,0 h -4.5 m -489.4,-4.27 h 4.5 m 489.4,0 h -4.5 m -489.4,-3.77 h 4.5 m 489.4,0 h -4.5"
     id="path124"
     style="color:#000000;fill:none;stroke-width:1;stroke-linecap:butt;stroke-linejoin:miter" />
  <path
     stroke="#000000"
     d="m 80.92,201.37 h 9 m 484.9,0 h -9"
     id="path114"
     style="color:#000000;fill:none;stroke-width:1;stroke-linecap:butt;stroke-linejoin:miter" />
  <text
     id="text118"
     style="color:#000000;font-size:12px;font-family:Arial;text-anchor:end;fill:#000000;stroke:none;stroke-width:1;stroke-linecap:butt;stroke-linejoin:miter"
     x="72.529999"
     y="205.27"><tspan
       font-family="Arial"
       id="tspan116">10</tspan></text>
  <path
     stroke="#c0c0c0"
     class="gridline"
     d="m 80.92,127.69 h 258.37 m 227.14,0 h 8.39"
     id="path130"
     style="color:#000000;fill:none;stroke-width:0.5;stroke-linecap:butt;stroke-linejoin:miter" />
  <path
     stroke="#000000"
     d="m 80.92,105.51 h 4.5 m 489.4,0 h -4.5 M 80.92,92.53 h 4.5 m 489.4,0 h -4.5 m -489.4,-9.2 h 4.5 m 489.4,0 h -4.5 M 80.92,76.19 h 4.5 m 489.4,0 h -4.5 M 80.92,70.36 h 4.5 m 489.4,0 h -4.5 M 80.92,65.42 h 4.5 m 489.4,0 h -4.5 M 80.92,61.15 h 4.5 m 489.4,0 h -4.5 M 80.92,57.38 h 4.5 m 489.4,0 h -4.5"
     id="path146"
     style="color:#000000;fill:none;stroke-width:1;stroke-linecap:butt;stroke-linejoin:miter" />
  <path
     stroke="#000000"
     d="m 80.92,127.69 h 9 m 484.9,0 h -9"
     id="path136"
     style="color:#000000;fill:none;stroke-width:1;stroke-linecap:butt;stroke-linejoin:miter" />
  <text
     id="text140"
     style="color:#000000;font-size:12px;font-family:Arial;text-anchor:end;fill:#000000;stroke:none;stroke-width:1;stroke-linecap:butt;stroke-linejoin:miter"
     x="72.529999"
     y="131.59"><tspan
       font-family="Arial"
       id="tspan138">100</tspan></text>
  <path
     stroke="#c0c0c0"
     class="gridline"
     d="m 80.92,54.01 h 493.9"
     id="path152"
     style="color:#000000;fill:none;stroke-width:0.5;stroke-linecap:butt;stroke-linejoin:miter" />
  <path
     stroke="#000000"
     d="m 80.92,54.01 h 9 m 484.9,0 h -9"
     id="path158"
     style="color:#000000;fill:none;stroke-width:1;stroke-linecap:butt;stroke-linejoin:miter" />
  <text
     id="text162"
     style="color:#000000;font-size:12px;font-family:Arial;text-anchor:end;fill:#000000;stroke:none;stroke-width:1;stroke-linecap:butt;stroke-linejoin:miter"
     x="72.529999"
     y="57.91"><tspan
       font-family="Arial"
       id="tspan160">1000</tspan></text>
  <path
     stroke="#c0c0c0"
     class="gridline"
     d="M 80.92,422.4 V 54.01"
     id="path172"
     style="color:#000000;fill:none;stroke-width:0.5;stroke-linecap:butt;stroke-linejoin:miter" />
  <path
     stroke="#000000"
     d="m 80.92,422.4 v -9 m 0,-359.39 v 9"
     id="path178"
     style="color:#000000;fill:none;stroke-width:1;stroke-linecap:butt;stroke-linejoin:miter" />
  <text
     id="text182"
     style="color:#000000;font-size:12px;font-family:Arial;text-anchor:middle;fill:#000000;stroke:none;stroke-width:1;stroke-linecap:butt;stroke-linejoin:miter"
     x="80.919998"
     y="444.29999"><tspan
       font-family="Arial"
       id="tspan180">0</tspan></text>
  <path
     stroke="#c0c0c0"
     class="gridline"
     d="M 151.48,422.4 V 54.01"
     id="path192"
     style="color:#000000;fill:none;stroke-width:0.5;stroke-linecap:butt;stroke-linejoin:miter" />
  <path
     style="fill:none;stroke:#c81919;stroke-width:1;stroke-linecap:butt;stroke-linejoin:miter;stroke-opacity:1;stroke-miterlimit:4;stroke-dasharray:3,1;stroke-dashoffset:0"
     d="M 151.48206,298.66225 V 422.92399"
     id="path1266" />
  <path
     stroke="#000000"
     d="m 151.48,422.4 v -9 m 0,-359.39 v 9"
     id="path198"
     style="color:#000000;fill:none;stroke-width:1;stroke-linecap:butt;stroke-linejoin:miter" />
  <text
     id="text202"
     style="color:#000000;font-size:12px;font-family:Arial;text-anchor:middle;fill:#000000;stroke:none;stroke-width:1;stroke-linecap:butt;stroke-linejoin:miter"
     x="151.48"
     y="444.29999"><tspan
       font-family="Arial"
       id="tspan200">10</tspan></text>
  <path
     stroke="#c0c0c0"
     class="gridline"
     d="M 222.03,422.4 V 54.01"
     id="path212"
     style="color:#000000;fill:none;stroke-width:0.5;stroke-linecap:butt;stroke-linejoin:miter" />
  <path
     stroke="#000000"
     d="m 222.03,422.4 v -9 m 0,-359.39 v 9"
     id="path218"
     style="color:#000000;fill:none;stroke-width:1;stroke-linecap:butt;stroke-linejoin:miter" />
  <text
     id="text222"
     style="color:#000000;font-size:12px;font-family:Arial;text-anchor:middle;fill:#000000;stroke:none;stroke-width:1;stroke-linecap:butt;stroke-linejoin:miter"
     x="222.03"
     y="444.29999"><tspan
       font-family="Arial"
       id="tspan220">20</tspan></text>
  <path
     stroke="#c0c0c0"
     class="gridline"
     d="M 292.59,422.4 V 54.01"
     id="path232"
     style="color:#000000;fill:none;stroke-width:0.5;stroke-linecap:butt;stroke-linejoin:miter" />
  <path
     stroke="#000000"
     d="m 292.59,422.4 v -9 m 0,-359.39 v 9"
     id="path238"
     style="color:#000000;fill:none;stroke-width:1;stroke-linecap:butt;stroke-linejoin:miter" />
  <text
     id="text242"
     style="color:#000000;font-size:12px;font-family:Arial;text-anchor:middle;fill:#000000;stroke:none;stroke-width:1;stroke-linecap:butt;stroke-linejoin:miter"
     x="292.59"
     y="444.29999"><tspan
       font-family="Arial"
       id="tspan240">30</tspan></text>
  <path
     stroke="#c0c0c0"
     class="gridline"
     d="M 363.15,422.4 V 135.01 m 0,-72 v -9"
     id="path252"
     style="color:#000000;fill:none;stroke-width:0.5;stroke-linecap:butt;stroke-linejoin:miter" />
  <path
     stroke="#000000"
     d="m 363.15,422.4 v -9 m 0,-359.39 v 9"
     id="path258"
     style="color:#000000;fill:none;stroke-width:1;stroke-linecap:butt;stroke-linejoin:miter" />
  <text
     id="text262"
     style="color:#000000;font-size:12px;font-family:Arial;text-anchor:middle;fill:#000000;stroke:none;stroke-width:1;stroke-linecap:butt;stroke-linejoin:miter"
     x="363.14999"
     y="444.29999"><tspan
       font-family="Arial"
       id="tspan260">40</tspan></text>
  <path
     stroke="#c0c0c0"
     class="gridline"
     d="M 433.71,422.4 V 135.01 m 0,-72 v -9"
     id="path272"
     style="color:#000000;fill:none;stroke-width:0.5;stroke-linecap:butt;stroke-linejoin:miter" />
  <path
     stroke="#000000"
     d="m 433.71,422.4 v -9 m 0,-359.39 v 9"
     id="path278"
     style="color:#000000;fill:none;stroke-width:1;stroke-linecap:butt;stroke-linejoin:miter" />
  <text
     id="text282"
     style="color:#000000;font-size:12px;font-family:Arial;text-anchor:middle;fill:#000000;stroke:none;stroke-width:1;stroke-linecap:butt;stroke-linejoin:miter"
     x="433.70999"
     y="444.29999"><tspan
       font-family="Arial"
       id="tspan280">50</tspan></text>
  <path
     stroke="#c0c0c0"
     class="gridline"
     d="M 504.26,422.4 V 135.01 m 0,-72 v -9"
     id="path292"
     style="color:#000000;fill:none;stroke-width:0.5;stroke-linecap:butt;stroke-linejoin:miter" />
  <path
     stroke="#000000"
     d="m 504.26,422.4 v -9 m 0,-359.39 v 9"
     id="path298"
     style="color:#000000;fill:none;stroke-width:1;stroke-linecap:butt;stroke-linejoin:miter" />
  <text
     id="text302"
     style="color:#000000;font-size:12px;font-family:Arial;text-anchor:middle;fill:#000000;stroke:none;stroke-width:1;stroke-linecap:butt;stroke-linejoin:miter"
     x="504.26001"
     y="444.29999"><tspan
       font-family="Arial"
       id="tspan300">60</tspan></text>
  <path
     stroke="#c0c0c0"
     class="gridline"
     d="M 574.82,422.4 V 54.01"
     id="path312"
     style="color:#000000;fill:none;stroke-width:0.5;stroke-linecap:butt;stroke-linejoin:miter" />
  <path
     stroke="#000000"
     d="m 574.82,422.4 v -9 m 0,-359.39 v 9"
     id="path318"
     style="color:#000000;fill:none;stroke-width:1;stroke-linecap:butt;stroke-linejoin:miter" />
  <text
     id="text322"
     style="color:#000000;font-size:12px;font-family:Arial;text-anchor:middle;fill:#000000;stroke:none;stroke-width:1;stroke-linecap:butt;stroke-linejoin:miter"
     x="574.82001"
     y="444.29999"><tspan
       font-family="Arial"
       id="tspan320">70</tspan></text>
  <text
     id="text336"
     style="color:#000000;font-size:12px;font-family:Arial;text-anchor:middle;fill:#000000;stroke:none;stroke-width:1;stroke-linecap:butt;stroke-linejoin:miter"
     transform="rotate(-90)"
     x="-238.21001"
     y="19.18"><tspan
       font-family="Arial"
       id="tspan334">bias</tspan></text>
  <path
     style="fill:none;stroke:#c81919;stroke-width:1;stroke-linecap:butt;stroke-linejoin:miter;stroke-miterlimit:4;stroke-dasharray:3, 1;stroke-dashoffset:0;stroke-opacity:1"
     d="M 172.65119,298.66225 V 422.92399"
     id="path1266-3" />
  <path
     stroke="#000000"
     d="M 80.92,54.01 V 422.4 h 493.9 V 54.01 Z"
     id="path330"
     style="color:#000000;fill:none;stroke-width:1;stroke-linecap:butt;stroke-linejoin:miter" />
  <text
     id="text344"
     style="color:#000000;font-size:12px;font-family:Arial;text-anchor:middle;fill:#000000;stroke:none;stroke-width:1;stroke-linecap:butt;stroke-linejoin:miter"
     x="327.87"
     y="471.29999"><tspan
       font-family="Arial"
       id="tspan342">bits</tspan></text>
  <g
     transform="translate(507.09,93.91)"
     stroke="none"
     fill="#000000"
     font-family="Arial"
     font-size="12px"
     text-anchor="end"
     id="g375"
     style="color:#000000;stroke-width:2;stroke-linecap:butt;stroke-linejoin:miter">
    <text
       id="text373"><tspan
         font-family="Arial"
         id="tspan371">camel-cdr</tspan></text>
  </g>
  <path
     stroke="#009e73"
     d="m 515.48,90.01 h 42.56 M 87.98,76.19 l 7.05,9.2 7.06,70.3 7.05,-6.31 7.06,21.87 7.05,34.19 7.06,22.89 7.06,24 7.05,23.99 7.06,22.83 7.05,21.03 7.06,15.35 7.05,10.66 7.06,2.91 7.06,-1.64 7.05,-2.74 7.06,6.06 7.05,-2.25 7.06,2.49 7.05,-1.65 7.06,-0.78 7.06,1.18 7.05,-0.08 7.06,-1.74 7.05,0.39 7.06,3.02 7.05,-2.12 7.06,0.72 7.06,-0.14 7.05,-1.39 7.06,1.12 7.05,0.79 7.06,-0.5 7.05,-0.4 7.06,1.4 7.06,-0.17 7.05,-0.79 7.06,-0.12 h 7.05 l 7.06,-0.76 7.05,1.44 7.06,-0.91 7.06,-0.48 7.05,-0.26 7.06,1.33 7.05,-0.26 7.06,-0.79 7.05,1.37 7.06,-0.13 7.06,-1.15 7.05,0.93 7.06,-1.12 7.05,0.75 7.06,0.59 7.05,-0.19 7.06,-0.63 7.06,-0.46 7.05,0.41 7.06,0.61 7.05,-0.53 7.06,0.36 7.05,-0.57 7.06,0.31 7.06,0.85"
     id="path379"
     style="color:#000000;fill:none;stroke-width:2;stroke-linecap:butt;stroke-linejoin:miter" />
  <path
     stroke="#9400d3"
     d="m 515.48,72.01 h 42.56 M 87.98,349.57 h 7.05 7.06 7.05 7.06 7.05 7.06 7.06 7.05 7.06 7.05 7.06 7.05 7.06 7.06 7.05 7.06 7.05 7.06 7.05 7.06 7.06 7.05 7.06 7.05 7.06 7.05 7.06 7.06 7.05 7.06 7.05 7.06 7.05 7.06 7.06 7.05 7.06 7.05 7.06 7.05 7.06 7.06 7.05 7.06 7.05 7.06 7.05 7.06 7.06 7.05 7.06 7.05 7.06 7.05 7.06 7.06 7.05 7.06 7.05 7.06 7.05 7.06 7.06"
     id="path364"
     style="color:#000000;fill:none;stroke-width:2;stroke-linecap:butt;stroke-linejoin:miter" />
  <g
     transform="translate(507.09,75.91)"
     stroke="none"
     fill="#000000"
     font-family="Arial"
     font-size="12px"
     text-anchor="end"
     id="g360"
     style="color:#000000;stroke-width:2;stroke-linecap:butt;stroke-linejoin:miter">
    <text
       id="text358"><tspan
         font-family="Arial"
         id="tspan356">best</tspan></text>
  </g>
  <g
     transform="translate(507.09,111.91)"
     stroke="none"
     fill="#000000"
     font-family="Arial"
     font-size="12px"
     text-anchor="end"
     id="g390"
     style="color:#000000;stroke-width:2;stroke-linecap:butt;stroke-linejoin:miter">
    <text
       id="text388"><tspan
         font-family="Arial"
         id="tspan386">kensler-splittable64</tspan></text>
  </g>
  <path
     stroke="#56b4e9"
     d="m 515.48,108.01 h 42.56 M 87.98,76.19 l 7.05,22.16 7.06,35.16 7.05,15.83 7.06,27.41 7.05,19.65 7.06,15.44 7.06,20.34 7.05,0.89 7.06,24.77 7.05,15.65 7.06,4.33 7.05,22.1 7.06,12.71 7.06,-9.08 7.05,6.24 7.06,3.9 7.05,0.97 7.06,1.01 7.05,-0.64 7.06,7 7.06,4.73 7.05,9.06 7.06,9.19 7.05,-0.66 7.06,-63.99 7.05,-29.93 7.06,18.37 7.06,17.98 7.05,62.53 7.06,0.73 7.05,-0.98 7.06,-0.12 7.05,1.01 7.06,-0.25 7.06,-1.12 7.05,1.89 7.06,-1.77 7.05,0.99 7.06,0.44 7.05,-1.4 7.06,0.3 7.06,1.1 7.05,-1.63 7.06,1.36 7.05,-0.65 7.06,0.14 7.05,0.13 7.06,-0.51 7.06,-0.11 7.05,0.29 7.06,0.79 7.05,-0.55 7.06,-0.34 7.05,0.13 7.06,0.54 7.06,-0.06 7.05,-0.61 7.06,0.84 7.05,-0.96 7.06,0.37 7.05,0.28 7.06,-0.1 7.06,0.72"
     id="path394"
     style="color:#000000;fill:none;stroke-width:2;stroke-linecap:butt;stroke-linejoin:miter" />
  <g
     transform="translate(507.09,129.91)"
     stroke="none"
     fill="#000000"
     font-family="Arial"
     font-size="12px"
     text-anchor="end"
     id="g405"
     style="color:#000000;stroke-width:2;stroke-linecap:butt;stroke-linejoin:miter">
    <text
       id="text403"><tspan
         font-family="Arial"
         id="tspan401">kensler</tspan></text>
  </g>
  <path
     stroke="#e69f00"
     d="m 515.48,126.01 h 42.56 M 87.98,76.19 l 7.05,9.2 7.06,70.23 7.05,-6.25 7.06,24.39 7.05,29.63 7.06,2.95 7.06,27.57 7.05,-1.91 7.06,25.06 7.05,12.72 7.06,7.52 7.05,22.47 7.06,11.8 7.06,-9.33 7.05,6.86 7.06,4.58 7.05,0.29 7.06,0.98 7.05,-0.97 7.06,7.32 7.06,3.99 7.05,10.31 7.06,9.28 7.05,0.53 7.06,-64.91 7.05,-30.1 7.06,-19.17 7.06,-13.77 7.05,-10.65 7.06,-8.56 7.05,-7.11 7.06,-6.04 7.05,-5.2 7.06,-4.55 7.06,-4.01 7.05,-3.58 7.06,-3.22 7.05,-2.9 7.06,-2.65 7.05,-2.41 7.06,-2.22 7.06,-2.06 7.05,-1.89 7.06,-1.76 7.05,-1.64 7.06,-1.53 7.05,-1.44 7.06,-1.34 7.06,-1.27 7.05,-1.19 7.06,-1.13 7.05,-1.07 7.06,-1.01 7.05,-0.95 7.06,-0.92 7.06,-0.86 7.05,-0.83 7.06,-0.79 7.05,-0.75 7.06,-0.72 7.05,-0.69 7.06,-0.66 7.06,-0.63"
     id="path409"
     style="color:#000000;fill:none;stroke-width:2;stroke-linecap:butt;stroke-linejoin:miter" />
  <text
     id="text424"
     style="color:#000000;font-size:12px;font-family:Arial;text-anchor:middle;fill:#000000;stroke:none;stroke-width:1;stroke-linecap:butt;stroke-linejoin:miter"
     x="327.87"
     y="39.91"><tspan
       font-family="Arial"
       id="tspan422">./plot.sh -b -0 -n 64 -q 24</tspan></text>
  <path
     stroke="#000000"
     d="M 80.92,54.01 V 422.4 h 493.9 V 54.01 Z"
     id="path418"
     style="color:#000000;fill:none;stroke-width:1;stroke-linecap:butt;stroke-linejoin:miter" />
  <text
     id="text202-6"
     style="color:#000000;font-size:12px;font-family:Arial;text-anchor:middle;fill:#000000;stroke:none;stroke-width:1;stroke-linecap:butt;stroke-linejoin:miter"
     x="172.65681"
     y="444.29999"><tspan
       font-family="Arial"
       id="tspan200-7">13</tspan></text>
</svg>
